<svg width="93" height="69" viewBox="0 0 93 69" fill="none" xmlns="http://www.w3.org/2000/svg">
<rect x="11" width="73" height="69" rx="34.5" fill="#C01717"/>
<path d="M26.2218 54.176C26.2218 54.372 26.3198 54.526 26.5158 54.638C26.7212 54.75 27.0385 54.8713 27.4678 55.002C27.9812 55.17 28.4012 55.3333 28.7278 55.492C29.0638 55.6507 29.3532 55.898 29.5958 56.234C29.8478 56.57 29.9738 57.0087 29.9738 57.55C29.9738 59.286 28.8445 60.154 26.5858 60.154C26.2125 60.154 25.7552 60.1213 25.2138 60.056C24.6818 59.9907 24.1965 59.9067 23.7578 59.804C23.7765 59.608 23.8138 59.3233 23.8698 58.95C23.9352 58.5673 23.9958 58.2827 24.0518 58.096C24.3785 58.1427 24.8685 58.1987 25.5218 58.264C26.1845 58.3293 26.6838 58.362 27.0198 58.362C27.2158 58.362 27.3325 58.348 27.3698 58.32C27.4258 58.2827 27.4678 58.222 27.4958 58.138C27.5332 58.0447 27.5518 57.9653 27.5518 57.9C27.5518 57.7133 27.4632 57.5733 27.2858 57.48C27.1085 57.3773 26.8052 57.256 26.3758 57.116C25.8625 56.9573 25.4378 56.794 25.1018 56.626C24.7658 56.458 24.4718 56.1967 24.2198 55.842C23.9678 55.4873 23.8418 55.0207 23.8418 54.442C23.8418 54.0313 23.9352 53.63 24.1218 53.238C24.3085 52.8367 24.4998 52.566 24.6958 52.426C24.8452 52.3233 25.1532 52.2253 25.6198 52.132C26.0865 52.0387 26.5252 51.992 26.9358 51.992C27.9812 51.992 28.8352 52.09 29.4978 52.286C29.4885 52.4727 29.4558 52.7293 29.3998 53.056C29.3532 53.3827 29.3018 53.6813 29.2458 53.952L28.9238 53.938C27.7105 53.854 26.9358 53.812 26.5998 53.812C26.4598 53.812 26.3805 53.8167 26.3618 53.826C26.3245 53.8447 26.2918 53.8867 26.2638 53.952C26.2358 54.0173 26.2218 54.092 26.2218 54.176ZM34.3509 51.978C35.1069 51.978 35.7462 52.048 36.2689 52.188C36.7916 52.328 37.2069 52.5987 37.5149 53C37.8322 53.392 37.9909 53.9567 37.9909 54.694C37.9909 55.0207 37.9396 55.3567 37.8369 55.702C37.7436 56.038 37.6222 56.332 37.4729 56.584C37.3329 56.836 37.2069 56.9993 37.0949 57.074C36.9642 57.1673 36.6749 57.242 36.2269 57.298C35.7789 57.3447 35.2516 57.368 34.6449 57.368C34.4302 57.368 34.0989 57.3587 33.6509 57.34V60H31.1309V52.02C32.1109 51.992 33.1842 51.978 34.3509 51.978ZM35.4009 55.576C35.4942 55.4547 35.5409 55.212 35.5409 54.848C35.5409 54.372 35.4382 54.036 35.2329 53.84C35.0369 53.644 34.6916 53.546 34.1969 53.546C34.0289 53.546 33.8469 53.56 33.6509 53.588V55.716C33.7442 55.7253 33.9262 55.73 34.1969 55.73C34.9156 55.73 35.3169 55.6787 35.4009 55.576ZM42.7749 60.182C41.3842 60.182 40.3389 59.8553 39.6389 59.202C38.9482 58.5393 38.6029 57.48 38.6029 56.024C38.6029 54.596 38.9855 53.5553 39.7509 52.902C40.5162 52.2487 41.5289 51.922 42.7889 51.922C45.4395 51.922 46.7649 53.2427 46.7649 55.884C46.7649 57.2187 46.4382 58.2687 45.7849 59.034C45.1409 59.7993 44.1375 60.182 42.7749 60.182ZM42.7189 58.53C42.9802 58.53 43.1995 58.488 43.3769 58.404C43.5542 58.3107 43.6942 58.152 43.7969 57.928C43.9929 57.5453 44.0909 56.92 44.0909 56.052C44.0909 55.2027 43.9929 54.5867 43.7969 54.204C43.6009 53.812 43.2415 53.6067 42.7189 53.588C42.5229 53.588 42.3175 53.6113 42.1029 53.658C41.8975 53.6953 41.7669 53.7513 41.7109 53.826C41.5989 53.9567 41.5102 54.2367 41.4449 54.666C41.3889 55.086 41.3609 55.548 41.3609 56.052C41.3609 56.836 41.4355 57.41 41.5849 57.774C41.6875 58.0447 41.8322 58.2407 42.0189 58.362C42.2055 58.474 42.4389 58.53 42.7189 58.53ZM55.145 60H52.499L52.023 57.984C52.0043 57.9093 51.9716 57.7833 51.925 57.606C51.8876 57.4193 51.841 57.284 51.785 57.2C51.729 57.1067 51.6496 57.046 51.547 57.018C51.2856 57.0273 50.903 57.032 50.399 57.032V60H47.879V52.09C49.0083 52.006 50.063 51.964 51.043 51.964C51.9296 51.964 52.6483 52.0387 53.199 52.188C53.7496 52.328 54.1603 52.5753 54.431 52.93C54.711 53.2753 54.851 53.7513 54.851 54.358C54.851 54.9273 54.7203 55.3753 54.459 55.702C54.1976 56.0193 53.7776 56.2107 53.199 56.276V56.36C53.5256 56.388 53.7963 56.4953 54.011 56.682C54.235 56.8593 54.3843 57.088 54.459 57.368L55.145 60ZM50.399 55.45C50.483 55.4593 50.6463 55.464 50.889 55.464C51.6076 55.464 52.0276 55.4033 52.149 55.282C52.261 55.17 52.317 54.9087 52.317 54.498C52.317 54.1153 52.2143 53.854 52.009 53.714C51.813 53.574 51.4863 53.504 51.029 53.504C50.9263 53.504 50.7163 53.5133 50.399 53.532V55.45ZM60.186 60H57.666V53.77H55.412V52.02H62.44V53.77H60.186V60ZM65.5421 54.176C65.5421 54.372 65.6401 54.526 65.8361 54.638C66.0415 54.75 66.3588 54.8713 66.7881 55.002C67.3015 55.17 67.7215 55.3333 68.0481 55.492C68.3841 55.6507 68.6735 55.898 68.9161 56.234C69.1681 56.57 69.2941 57.0087 69.2941 57.55C69.2941 59.286 68.1648 60.154 65.9061 60.154C65.5328 60.154 65.0755 60.1213 64.5341 60.056C64.0021 59.9907 63.5168 59.9067 63.0781 59.804C63.0968 59.608 63.1341 59.3233 63.1901 58.95C63.2555 58.5673 63.3161 58.2827 63.3721 58.096C63.6988 58.1427 64.1888 58.1987 64.8421 58.264C65.5048 58.3293 66.0041 58.362 66.3401 58.362C66.5361 58.362 66.6528 58.348 66.6901 58.32C66.7461 58.2827 66.7881 58.222 66.8161 58.138C66.8535 58.0447 66.8721 57.9653 66.8721 57.9C66.8721 57.7133 66.7835 57.5733 66.6061 57.48C66.4288 57.3773 66.1255 57.256 65.6961 57.116C65.1828 56.9573 64.7581 56.794 64.4221 56.626C64.0861 56.458 63.7921 56.1967 63.5401 55.842C63.2881 55.4873 63.1621 55.0207 63.1621 54.442C63.1621 54.0313 63.2555 53.63 63.4421 53.238C63.6288 52.8367 63.8201 52.566 64.0161 52.426C64.1655 52.3233 64.4735 52.2253 64.9401 52.132C65.4068 52.0387 65.8455 51.992 66.2561 51.992C67.3015 51.992 68.1555 52.09 68.8181 52.286C68.8088 52.4727 68.7761 52.7293 68.7201 53.056C68.6735 53.3827 68.6221 53.6813 68.5661 53.952L68.2441 53.938C67.0308 53.854 66.2561 53.812 65.9201 53.812C65.7801 53.812 65.7008 53.8167 65.6821 53.826C65.6448 53.8447 65.6121 53.8867 65.5841 53.952C65.5561 54.0173 65.5421 54.092 65.5421 54.176Z" fill="black"/>
<g filter="url(#filter0_d_110_46)">
<path d="M66.799 9.36365V18.3636V27.3636V36.3636V45.3636H61.4817L45.9325 20.8422H45.6586L45.528 44.8636L39.6807 45.3636V9.36365H45.0302L60.5632 33.9027H60.8532V9.36365L64.028 12.8636L66.799 9.36365Z" fill="white"/>
<path d="M41.4847 45.3636H29V9H41.5879C45.1304 9 48.1799 9.72798 50.7365 11.1839C53.293 12.6281 55.2592 14.7055 56.6349 17.4162C58.0221 20.1269 58.7157 23.3703 58.7157 27.1463C58.7157 30.9342 58.0221 34.1894 56.6349 36.9119C55.2592 39.6345 53.2816 41.7237 50.7021 43.1797C48.134 44.6357 45.0616 45.3636 41.4847 45.3636ZM36.4461 38.7763H41.1752C43.3763 38.7763 45.2278 38.3738 46.7297 37.5689C48.243 36.7521 35.701 35.4915 36.4576 33.7869C37.2257 32.0705 51.2868 29.857 51.2868 27.1463C51.2868 24.4593 37.1439 22.2635 36.3758 20.559C35.6191 18.8544 48.2487 17.5997 46.7469 16.7947C45.245 15.9898 43.3935 15.5874 41.1924 15.5874H36.4461V38.7763Z" fill="black"/>
</g>
<path d="M39.6807 37.3636H45.6467V45.3636L42.528 41.3636L39.6807 45.3636V37.3636Z" fill="white"/>
<defs>
<filter id="filter0_d_110_46" x="25" y="9" width="45.799" height="44.3636" filterUnits="userSpaceOnUse" color-interpolation-filters="sRGB">
<feFlood flood-opacity="0" result="BackgroundImageFix"/>
<feColorMatrix in="SourceAlpha" type="matrix" values="0 0 0 0 0 0 0 0 0 0 0 0 0 0 0 0 0 0 127 0" result="hardAlpha"/>
<feOffset dy="4"/>
<feGaussianBlur stdDeviation="2"/>
<feComposite in2="hardAlpha" operator="out"/>
<feColorMatrix type="matrix" values="0 0 0 0 0 0 0 0 0 0 0 0 0 0 0 0 0 0 0.25 0"/>
<feBlend mode="normal" in2="BackgroundImageFix" result="effect1_dropShadow_110_46"/>
<feBlend mode="normal" in="SourceGraphic" in2="effect1_dropShadow_110_46" result="shape"/>
</filter>
</defs>
</svg>
