<svg width="135" height="50" viewBox="0 0 135 50" fill="none" xmlns="http://www.w3.org/2000/svg">
<rect width="135" height="48" rx="10" fill="#C01717"/>
<g filter="url(#filter0_d_110_34)">
<path d="M49.771 6V15V24V33V42H44.4537L28.9046 17.4785H28.6307L28.5 41.5L22.6527 42V6H28.0023L43.5353 30.5391H43.8253V6L47 9.5L49.771 6Z" fill="white"/>
<path d="M24.4568 42H11.972V5.63635H24.5599C28.1024 5.63635 31.152 6.36434 33.7085 7.8203C36.2651 9.26443 38.2312 11.3418 39.607 14.0525C40.9942 16.7632 41.6878 20.0066 41.6878 23.7827C41.6878 27.5705 40.9942 30.8257 39.607 33.5483C38.2312 36.2708 36.2536 38.3601 33.6741 39.816C31.1061 41.272 28.0336 42 24.4568 42ZM19.4182 35.4126H24.1472C26.3484 35.4126 28.1999 35.0102 29.7017 34.2052C31.215 33.3885 18.673 32.1278 19.4297 30.4233C20.1978 28.7069 34.2588 26.4934 34.2588 23.7827C34.2588 21.0956 20.1159 18.8998 19.3478 17.1953C18.5912 15.4908 31.2207 14.236 29.7189 13.4311C28.2171 12.6262 26.3656 12.2237 24.1644 12.2237H19.4182V35.4126Z" fill="black"/>
</g>
<path d="M22.6527 34H28.6187V42L25.5 38L22.6527 42V34Z" fill="white"/>
<path d="M59.5591 22.68C59.5591 22.96 59.6991 23.18 59.9791 23.34C60.2724 23.5 60.7258 23.6733 61.3391 23.86C62.0724 24.1 62.6724 24.3333 63.1391 24.56C63.6191 24.7867 64.0324 25.14 64.3791 25.62C64.7391 26.1 64.9191 26.7267 64.9191 27.5C64.9191 29.98 63.3058 31.22 60.0791 31.22C59.5458 31.22 58.8924 31.1733 58.1191 31.08C57.3591 30.9867 56.6658 30.8667 56.0391 30.72C56.0658 30.44 56.1191 30.0333 56.1991 29.5C56.2924 28.9533 56.3791 28.5467 56.4591 28.28C56.9258 28.3467 57.6258 28.4267 58.5591 28.52C59.5058 28.6133 60.2191 28.66 60.6991 28.66C60.9791 28.66 61.1458 28.64 61.1991 28.6C61.2791 28.5467 61.3391 28.46 61.3791 28.34C61.4324 28.2067 61.4591 28.0933 61.4591 28C61.4591 27.7333 61.3324 27.5333 61.0791 27.4C60.8258 27.2533 60.3924 27.08 59.7791 26.88C59.0458 26.6533 58.4391 26.42 57.9591 26.18C57.4791 25.94 57.0591 25.5667 56.6991 25.06C56.3391 24.5533 56.1591 23.8867 56.1591 23.06C56.1591 22.4733 56.2924 21.9 56.5591 21.34C56.8258 20.7667 57.0991 20.38 57.3791 20.18C57.5924 20.0333 58.0324 19.8933 58.6991 19.76C59.3658 19.6267 59.9924 19.56 60.5791 19.56C62.0724 19.56 63.2924 19.7 64.2391 19.98C64.2258 20.2467 64.1791 20.6133 64.0991 21.08C64.0324 21.5467 63.9591 21.9733 63.8791 22.36L63.4191 22.34C61.6858 22.22 60.5791 22.16 60.0991 22.16C59.8991 22.16 59.7858 22.1667 59.7591 22.18C59.7058 22.2067 59.6591 22.2667 59.6191 22.36C59.5791 22.4533 59.5591 22.56 59.5591 22.68ZM71.1721 19.54C72.2521 19.54 73.1654 19.64 73.9121 19.84C74.6587 20.04 75.2521 20.4267 75.6921 21C76.1454 21.56 76.3721 22.3667 76.3721 23.42C76.3721 23.8867 76.2987 24.3667 76.1521 24.86C76.0187 25.34 75.8454 25.76 75.6321 26.12C75.4321 26.48 75.2521 26.7133 75.0921 26.82C74.9054 26.9533 74.4921 27.06 73.8521 27.14C73.2121 27.2067 72.4587 27.24 71.5921 27.24C71.2854 27.24 70.8121 27.2267 70.1721 27.2V31H66.5721V19.6C67.9721 19.56 69.5054 19.54 71.1721 19.54ZM72.6721 24.68C72.8054 24.5067 72.8721 24.16 72.8721 23.64C72.8721 22.96 72.7254 22.48 72.4321 22.2C72.1521 21.92 71.6587 21.78 70.9521 21.78C70.7121 21.78 70.4521 21.8 70.1721 21.84V24.88C70.3054 24.8933 70.5654 24.9 70.9521 24.9C71.9787 24.9 72.5521 24.8267 72.6721 24.68ZM83.2063 31.26C81.2196 31.26 79.7263 30.7933 78.7263 29.86C77.7396 28.9133 77.2463 27.4 77.2463 25.32C77.2463 23.28 77.793 21.7933 78.8863 20.86C79.9796 19.9267 81.4263 19.46 83.2263 19.46C87.013 19.46 88.9063 21.3467 88.9063 25.12C88.9063 27.0267 88.4396 28.5267 87.5063 29.62C86.5863 30.7133 85.153 31.26 83.2063 31.26ZM83.1263 28.9C83.4996 28.9 83.813 28.84 84.0663 28.72C84.3196 28.5867 84.5196 28.36 84.6663 28.04C84.9463 27.4933 85.0863 26.6 85.0863 25.36C85.0863 24.1467 84.9463 23.2667 84.6663 22.72C84.3863 22.16 83.873 21.8667 83.1263 21.84C82.8463 21.84 82.553 21.8733 82.2463 21.94C81.953 21.9933 81.7663 22.0733 81.6863 22.18C81.5263 22.3667 81.3996 22.7667 81.3063 23.38C81.2263 23.98 81.1863 24.64 81.1863 25.36C81.1863 26.48 81.293 27.3 81.5063 27.82C81.653 28.2067 81.8596 28.4867 82.1263 28.66C82.393 28.82 82.7263 28.9 83.1263 28.9ZM100.878 31H97.0979L96.4179 28.12C96.3912 28.0133 96.3445 27.8333 96.2779 27.58C96.2245 27.3133 96.1579 27.12 96.0779 27C95.9979 26.8667 95.8845 26.78 95.7379 26.74C95.3645 26.7533 94.8179 26.76 94.0979 26.76V31H90.4979V19.7C92.1112 19.58 93.6179 19.52 95.0179 19.52C96.2845 19.52 97.3112 19.6267 98.0979 19.84C98.8845 20.04 99.4712 20.3933 99.8579 20.9C100.258 21.3933 100.458 22.0733 100.458 22.94C100.458 23.7533 100.271 24.3933 99.8979 24.86C99.5245 25.3133 98.9245 25.5867 98.0979 25.68V25.8C98.5645 25.84 98.9512 25.9933 99.2579 26.26C99.5779 26.5133 99.7912 26.84 99.8979 27.24L100.878 31ZM94.0979 24.5C94.2179 24.5133 94.4512 24.52 94.7979 24.52C95.8245 24.52 96.4245 24.4333 96.5979 24.26C96.7579 24.1 96.8379 23.7267 96.8379 23.14C96.8379 22.5933 96.6912 22.22 96.3979 22.02C96.1179 21.82 95.6512 21.72 94.9979 21.72C94.8512 21.72 94.5512 21.7333 94.0979 21.76V24.5ZM108.079 31H104.479V22.1H101.259V19.6H111.299V22.1H108.079V31ZM115.731 22.68C115.731 22.96 115.871 23.18 116.151 23.34C116.444 23.5 116.898 23.6733 117.511 23.86C118.244 24.1 118.844 24.3333 119.311 24.56C119.791 24.7867 120.204 25.14 120.551 25.62C120.911 26.1 121.091 26.7267 121.091 27.5C121.091 29.98 119.478 31.22 116.251 31.22C115.718 31.22 115.064 31.1733 114.291 31.08C113.531 30.9867 112.838 30.8667 112.211 30.72C112.238 30.44 112.291 30.0333 112.371 29.5C112.464 28.9533 112.551 28.5467 112.631 28.28C113.098 28.3467 113.798 28.4267 114.731 28.52C115.678 28.6133 116.391 28.66 116.871 28.66C117.151 28.66 117.318 28.64 117.371 28.6C117.451 28.5467 117.511 28.46 117.551 28.34C117.604 28.2067 117.631 28.0933 117.631 28C117.631 27.7333 117.504 27.5333 117.251 27.4C116.998 27.2533 116.564 27.08 115.951 26.88C115.218 26.6533 114.611 26.42 114.131 26.18C113.651 25.94 113.231 25.5667 112.871 25.06C112.511 24.5533 112.331 23.8867 112.331 23.06C112.331 22.4733 112.464 21.9 112.731 21.34C112.998 20.7667 113.271 20.38 113.551 20.18C113.764 20.0333 114.204 19.8933 114.871 19.76C115.538 19.6267 116.164 19.56 116.751 19.56C118.244 19.56 119.464 19.7 120.411 19.98C120.398 20.2467 120.351 20.6133 120.271 21.08C120.204 21.5467 120.131 21.9733 120.051 22.36L119.591 22.34C117.858 22.22 116.751 22.16 116.271 22.16C116.071 22.16 115.958 22.1667 115.931 22.18C115.878 22.2067 115.831 22.2667 115.791 22.36C115.751 22.4533 115.731 22.56 115.731 22.68Z" fill="black"/>
<defs>
<filter id="filter0_d_110_34" x="7.97205" y="5.63635" width="45.799" height="44.3636" filterUnits="userSpaceOnUse" color-interpolation-filters="sRGB">
<feFlood flood-opacity="0" result="BackgroundImageFix"/>
<feColorMatrix in="SourceAlpha" type="matrix" values="0 0 0 0 0 0 0 0 0 0 0 0 0 0 0 0 0 0 127 0" result="hardAlpha"/>
<feOffset dy="4"/>
<feGaussianBlur stdDeviation="2"/>
<feComposite in2="hardAlpha" operator="out"/>
<feColorMatrix type="matrix" values="0 0 0 0 0 0 0 0 0 0 0 0 0 0 0 0 0 0 0.25 0"/>
<feBlend mode="normal" in2="BackgroundImageFix" result="effect1_dropShadow_110_34"/>
<feBlend mode="normal" in="SourceGraphic" in2="effect1_dropShadow_110_34" result="shape"/>
</filter>
</defs>
</svg>
